<svg width="80" height="80" viewBox="0 0 80 80" fill="none" xmlns="http://www.w3.org/2000/svg">
<path d="M57.0513 13.0064C52.5489 11.3776 46.5809 10.48 40.2513 10.48C33.9217 10.48 27.9521 11.3776 23.4513 13.0064C18.6417 14.7456 15.9937 17.1824 15.9937 19.8688V61.4128C15.9937 64.0976 18.6417 66.5328 23.4513 68.2752C27.9537 69.904 33.9217 70.8016 40.2513 70.8016C46.5809 70.8016 52.5505 69.904 57.0513 68.2752C61.8609 66.536 64.5089 64.0992 64.5089 61.4128V19.8688C64.5089 17.184 61.8609 14.7456 57.0513 13.0064ZM40.2513 12.4C53.4177 12.4 62.5921 16.336 62.5921 19.8672C62.5921 23.3984 53.4177 27.3344 40.2513 27.3344C27.0849 27.3344 17.9105 23.3984 17.9105 19.8672C17.9105 16.336 27.0833 12.4016 40.2481 12.4016L40.2513 12.4ZM33.7137 62.416V53.4032L40.2513 56.1872L46.7889 53.4032V62.416L40.2513 59.632L33.7137 62.416ZM33.7137 44.2128V35.2L40.2513 37.984L46.7873 35.2V44.2128L40.2497 41.4288L33.7137 44.2128ZM17.9105 61.4128V56.0832C18.0545 56.184 18.1969 56.2848 18.3409 56.3808L19.1409 56.9168L20.2129 55.3168L19.4129 54.7808C19.1009 54.5712 18.7857 54.3472 18.4769 54.1136L17.9105 53.6864V45.0192C18.0545 45.12 18.1969 45.2208 18.3409 45.3168L19.1409 45.8528L20.2129 44.2528L19.4129 43.7168C19.1009 43.5072 18.7873 43.2832 18.4769 43.0496L17.9105 42.624V34.1104C18.0545 34.2112 18.1969 34.312 18.3409 34.408L19.1409 34.944L20.2129 33.344L19.4129 32.808C19.1009 32.5984 18.7857 32.3744 18.4769 32.1408L17.9105 31.7136V23.6496C19.1745 24.8144 21.0401 25.8592 23.4481 26.7312C27.7217 28.2768 33.3169 29.1616 39.2881 29.248V35.488L31.7905 32.288V36.5264L31.3857 36.496L30.4257 36.4176L30.2657 38.3376L31.2257 38.416L31.7873 38.4592V47.1152L39.2849 43.9152V47.68H39.0481H38.0881V49.6H39.0481H39.2913V53.6976L31.7937 50.4976V58.5072L31.3889 58.4768L30.4289 58.3984L30.2689 60.3184L31.2289 60.3968L31.7905 60.44V65.3264L39.2881 62.1264V68.8704C26.6401 68.688 17.9089 64.8592 17.9089 61.4128H17.9105ZM62.5921 61.4128C62.5921 64.8592 53.8609 68.688 41.2113 68.8736V62.1296L48.7089 65.3296V60.4336L49.2417 60.392L50.2017 60.3136L50.0417 58.3936L49.0817 58.472L48.7057 58.5008V50.5008L41.2081 53.7008V49.6H41.4209H42.3809V47.68H41.4209H41.2161V43.9264L48.7136 47.1264V38.4592L49.2465 38.4176L50.2065 38.3392L50.0465 36.4192L49.0865 36.4976L48.7105 36.5264V32.296L41.2129 35.496V29.256C47.1857 29.1696 52.7808 28.2848 57.0528 26.7392C59.4608 25.8688 61.3281 24.8192 62.5905 23.6576V31.7056L61.9937 32.1552C61.6833 32.3888 61.368 32.6128 61.0577 32.8224L60.2577 33.3584L61.3297 34.9584L62.1297 34.4224C62.2897 34.32 62.4369 34.2128 62.5905 34.1024V42.608L61.9937 43.0576C61.6817 43.2912 61.3665 43.5168 61.0577 43.7248L60.2577 44.2608L61.3297 45.8608L62.1297 45.3248C62.2897 45.2224 62.4369 45.1152 62.5905 45.0048V53.6784L61.9937 54.128C61.6833 54.3616 61.368 54.5856 61.0577 54.7952L60.2577 55.3312L61.3297 56.9312L62.1297 56.3952C62.2897 56.2928 62.4369 56.1856 62.5905 56.0752L62.5921 61.4128Z" fill="black"/>
<path d="M40.2482 26.1553C49.4466 26.1553 58.7586 23.9953 58.7586 19.8689C58.7586 15.7425 49.4402 13.5825 40.2482 13.5825C31.0562 13.5825 21.7378 15.7425 21.7378 19.8689C21.7378 23.9953 31.0498 26.1553 40.2482 26.1553ZM40.2482 15.5025C50.3762 15.5025 56.8386 18.0881 56.8386 19.8689C56.8386 21.6497 50.3762 24.2353 40.2482 24.2353C30.1202 24.2353 23.6578 21.6497 23.6578 19.8689C23.6578 18.0881 30.1218 15.5025 40.2482 15.5025Z" fill="black"/>
<path d="M31.8897 22.1632C34.1297 22.5312 37.0993 22.7344 40.2497 22.7344C43.4001 22.7344 46.3681 22.5312 48.6097 22.1632C51.5953 21.6736 52.8129 21.008 52.8129 19.8688C52.8129 18.7296 51.5953 18.0656 48.6097 17.5744C46.3697 17.2064 43.4001 17.0032 40.2497 17.0032C37.0993 17.0032 34.1313 17.2064 31.8897 17.5744C28.9041 18.064 27.6865 18.7296 27.6865 19.8688C27.6865 21.008 28.9041 21.6736 31.8897 22.1632ZM40.2497 18.9248C45.3105 18.9248 48.6497 19.4272 50.1569 19.8688C48.6497 20.3104 45.3105 20.8128 40.2497 20.8128C35.1889 20.8128 31.8497 20.3104 30.3425 19.8688C31.8497 19.4272 35.1889 18.9248 40.2481 18.9248H40.2497Z" fill="black"/>
<path d="M56.44 57.0879C55.7632 57.3199 55.0431 57.5279 54.2975 57.7039L53.3647 57.9199L53.8063 59.7887L54.7407 59.5679C55.5408 59.3775 56.328 59.1535 57.064 58.9007L57.9728 58.5887L57.3488 56.7727L56.44 57.0879Z" fill="black"/>
<path d="M24.0288 57.0881L23.1216 56.7761L22.4976 58.5921L23.4064 58.9041C24.1424 59.1569 24.9248 59.3841 25.7296 59.5713L26.664 59.7921L27.104 57.9201L26.1696 57.6993C25.4272 57.5281 24.7056 57.3201 24.0288 57.0881Z" fill="black"/>
<path d="M49.0832 47.4144C48.3664 47.4736 47.6192 47.52 46.7984 47.5584L45.8384 47.6032L45.9264 49.5232L46.8864 49.4784C47.7296 49.44 48.4992 49.392 49.24 49.3312L50.2 49.2528L50.04 47.3328L49.0832 47.4144Z" fill="black"/>
<path d="M56.4401 46.024C55.7633 46.256 55.0433 46.464 54.2977 46.64L53.3633 46.8608L53.8049 48.7296L54.7393 48.5088C55.5393 48.3184 56.3265 48.0944 57.0625 47.8416L57.9713 47.5296L57.3473 45.7136L56.4401 46.024Z" fill="black"/>
<path d="M33.5824 49.4752L34.5424 49.52L34.6304 47.6L33.6704 47.5552C32.8496 47.5168 32.1024 47.4704 31.3856 47.4112L30.4256 47.3328L30.2656 49.2528L31.2256 49.3312C31.9696 49.3888 32.7392 49.44 33.5824 49.4752Z" fill="black"/>
<path d="M24.0288 46.0239L23.1216 45.7119L22.4976 47.5279L23.4064 47.8399C24.1424 48.0927 24.9248 48.3199 25.7296 48.5071L26.664 48.7279L27.1056 46.8591L26.1712 46.6383C25.4272 46.4639 24.7056 46.2575 24.0288 46.0239Z" fill="black"/>
<path d="M56.4401 35.1136C55.7633 35.3456 55.0433 35.5536 54.2977 35.7296L53.3633 35.9504L53.8049 37.8192L54.7393 37.5984C55.5393 37.408 56.3265 37.184 57.0625 36.9312L57.9713 36.6192L57.3473 34.8032L56.4401 35.1136Z" fill="black"/>
<path d="M24.0288 35.1152L23.1216 34.8032L22.4976 36.6192L23.4064 36.9312C24.1424 37.184 24.9248 37.4112 25.7296 37.5984L26.664 37.8192L27.1056 35.9504L26.1712 35.7296C25.4272 35.5536 24.7056 35.3472 24.0288 35.1152Z" fill="black"/>
</svg>
