<svg width="20" height="20" viewBox="0 0 20 20" fill="none" xmlns="http://www.w3.org/2000/svg">
<g clip-path="url(#clip0_165_624)">
<path d="M19.4411 14.0458L5.95303 0.557758C5.20948 -0.185789 3.99941 -0.185399 3.25548 0.557758L0.557924 3.25527C-0.185975 3.99882 -0.185975 5.20928 0.557924 5.95282L4.60335 9.99814C4.60374 9.99853 4.60406 9.99896 4.60445 9.99935C4.60484 9.99974 4.60527 10.0001 4.60566 10.0004L9.99705 15.3917C9.99795 15.3926 9.99869 15.3936 9.99955 15.3945C10.0004 15.3954 10.0014 15.3961 10.0023 15.397L14.0464 19.4409C14.4062 19.8011 14.8853 19.9998 15.395 19.9998C15.9047 19.9998 16.3838 19.8011 16.7436 19.4406L19.4411 16.743C19.8013 16.3833 20 15.9041 20 15.3945C20 14.8848 19.8013 14.4056 19.4411 14.0458ZM5.41358 9.72962L9.72967 5.41353L14.5852 10.2693L10.2692 14.5853L5.41358 9.72962ZM1.09737 3.79472L3.79492 1.09717C4.01809 0.874005 4.31109 0.7626 4.60445 0.7626C4.89745 0.7626 5.19042 0.874396 5.41358 1.09717L9.19026 4.87405L4.87417 9.19018L1.09737 5.41338C0.6514 4.96705 0.6514 4.24108 1.09737 3.79472ZM18.9013 16.2039L16.2037 18.9015C15.7715 19.3337 15.0177 19.3337 14.5854 18.9015L10.8086 15.1247L15.1246 10.8088L18.9013 14.5856C19.1172 14.8016 19.2366 15.0888 19.2366 15.3948C19.2366 15.7007 19.1172 15.988 18.9013 16.2039Z" fill="black"/>
<path d="M6.76266 9.45991C6.61348 9.31073 6.37239 9.31073 6.22321 9.45991C6.07403 9.60909 6.07403 9.85018 6.22321 9.99936L6.49294 10.2691C6.56731 10.3435 6.665 10.3809 6.76266 10.3809C6.86031 10.3809 6.95797 10.3435 7.03238 10.2691C7.18156 10.1199 7.18156 9.87881 7.03238 9.72963L6.76266 9.45991Z" fill="black"/>
<path d="M7.84133 10.5387C7.69215 10.3895 7.45067 10.3895 7.30153 10.5387C7.15274 10.6875 7.15274 10.929 7.30153 11.0782L7.57126 11.3479C7.64602 11.4223 7.74368 11.4597 7.84137 11.4597C7.93903 11.4597 8.03668 11.4223 8.11109 11.3479C8.25988 11.1991 8.25988 10.9576 8.11109 10.8084L7.84133 10.5387Z" fill="black"/>
<path d="M9.19039 11.8877C9.04122 11.7385 8.80012 11.7385 8.65095 11.8877C8.50177 12.0369 8.50177 12.278 8.65095 12.4272L8.92067 12.6969C8.99504 12.7713 9.09274 12.8087 9.19039 12.8087C9.28805 12.8087 9.38571 12.7717 9.46012 12.6969C9.6093 12.5477 9.6093 12.3066 9.46012 12.1574L9.19039 11.8877Z" fill="black"/>
<path d="M10.269 12.9666C10.1198 12.8174 9.87874 12.8174 9.72956 12.9666C9.58038 13.1158 9.58038 13.3569 9.72956 13.5061L9.99928 13.7758C10.0737 13.8502 10.1714 13.8876 10.269 13.8876C10.3667 13.8876 10.4643 13.8506 10.5387 13.7758C10.6879 13.6266 10.6879 13.3855 10.5387 13.2363L10.269 12.9666Z" fill="black"/>
<path d="M7.84202 8.38066C7.69284 8.23187 7.45175 8.23113 7.30222 8.38027C7.15343 8.52944 7.15304 8.77092 7.30183 8.92006L7.57155 9.19018C7.64592 9.26455 7.74397 9.30197 7.84166 9.30197C7.93893 9.30197 8.03662 9.26498 8.11139 9.19057C8.26018 9.04139 8.26057 8.79991 8.11178 8.65077L7.84202 8.38066Z" fill="black"/>
<path d="M8.92081 10.3809C9.01886 10.3809 9.11612 10.3435 9.19053 10.2691C9.33932 10.1199 9.33932 9.87841 9.19014 9.72962L8.92003 9.45989C8.7705 9.31111 8.52937 9.31072 8.38058 9.46029C8.2318 9.60946 8.2318 9.85095 8.38097 9.99974L8.65109 10.2695C8.72585 10.3435 8.82316 10.3809 8.92081 10.3809Z" fill="black"/>
<path d="M10.2691 10.8084C10.1199 10.6593 9.87879 10.6597 9.72961 10.8081C9.58043 10.9572 9.58043 11.1983 9.72922 11.3479L9.99895 11.618C10.0737 11.6924 10.1714 11.7298 10.2691 11.7298C10.3668 11.7298 10.4644 11.6924 10.5388 11.6184C10.688 11.4692 10.688 11.2281 10.5392 11.0786L10.2691 10.8084Z" fill="black"/>
<path d="M11.3481 11.8873C11.1989 11.7389 10.9575 11.7385 10.8083 11.8877C10.6595 12.0373 10.6595 12.2784 10.8087 12.4275L11.0788 12.6973C11.1532 12.7713 11.2509 12.8087 11.3486 12.8087C11.4462 12.8087 11.5443 12.7717 11.6187 12.6969C11.7675 12.5474 11.7675 12.3062 11.6183 12.1571L11.3481 11.8873Z" fill="black"/>
<path d="M8.65071 8.11132C8.72547 8.1857 8.82313 8.22273 8.92043 8.22273C9.01848 8.22273 9.11613 8.18534 9.19054 8.11093C9.33972 7.9614 9.33933 7.71991 9.19015 7.57112L8.92004 7.3014C8.77051 7.15187 8.52864 7.15261 8.38024 7.30179C8.23107 7.45132 8.23146 7.6928 8.38063 7.84159L8.65071 8.11132Z" fill="black"/>
<path d="M9.72941 9.19016C9.80418 9.26454 9.90183 9.30196 9.99952 9.30196C10.0972 9.30196 10.1948 9.26458 10.2689 9.19055C10.418 9.04176 10.418 8.80028 10.2692 8.6511L9.99952 8.38099C9.85035 8.23146 9.60926 8.23181 9.46008 8.3806C9.3109 8.52938 9.3109 8.77087 9.45969 8.92005L9.72941 9.19016Z" fill="black"/>
<path d="M11.3481 9.72924C11.1989 9.58045 10.9575 9.58006 10.8083 9.72963C10.6595 9.87881 10.6595 10.1203 10.8087 10.2691L11.0788 10.5392C11.1532 10.6132 11.2509 10.6506 11.3486 10.6506C11.4462 10.6506 11.5443 10.6132 11.6187 10.5388C11.7675 10.3893 11.7675 10.1478 11.6183 9.99901L11.3481 9.72924Z" fill="black"/>
<path d="M12.4281 10.8084C12.2789 10.6593 12.0374 10.6597 11.8883 10.8081C11.7391 10.9572 11.7391 11.1983 11.8879 11.3479L12.1576 11.618C12.232 11.6924 12.3301 11.7298 12.4278 11.7298C12.525 11.7298 12.6227 11.6924 12.6975 11.6184C12.8467 11.4692 12.8467 11.2281 12.6979 11.0786L12.4281 10.8084Z" fill="black"/>
<path d="M9.72975 7.03207C9.80413 7.10645 9.90182 7.14387 9.99948 7.14387C10.0971 7.14387 10.1948 7.10648 10.2692 7.03207C10.4184 6.88289 10.4184 6.6418 10.2692 6.49263L9.99948 6.22291C9.8503 6.07373 9.60921 6.07373 9.46003 6.22291C9.31085 6.37208 9.31085 6.61317 9.46003 6.76235L9.72975 7.03207Z" fill="black"/>
<path d="M10.8088 8.11133C10.8832 8.18536 10.9809 8.22274 11.0786 8.22274C11.1762 8.22274 11.2739 8.18536 11.3483 8.11133C11.4975 7.96215 11.4975 7.72067 11.3483 7.57153L11.0786 7.3018C10.9294 7.15301 10.6883 7.15262 10.5391 7.3018C10.39 7.45098 10.39 7.69247 10.5391 7.84161L10.8088 8.11133Z" fill="black"/>
<path d="M12.158 9.45993C12.2324 9.5343 12.3301 9.57172 12.4277 9.57172C12.525 9.57172 12.6227 9.53434 12.6974 9.45993C12.8466 9.31075 12.8466 9.06966 12.6974 8.92048L12.4277 8.65076C12.2785 8.50159 12.0374 8.50159 11.8883 8.65076C11.7391 8.79994 11.7391 9.04103 11.8883 9.19021L12.158 9.45993Z" fill="black"/>
<path d="M13.7765 9.99935L13.5068 9.72962C13.3576 9.58044 13.1165 9.58044 12.9674 9.72962C12.8182 9.8788 12.8182 10.1199 12.9674 10.2691L13.2371 10.5388C13.3114 10.6132 13.4091 10.6506 13.5068 10.6506C13.6044 10.6506 13.7017 10.6132 13.7765 10.5388C13.9257 10.3896 13.9257 10.1485 13.7765 9.99935Z" fill="black"/>
</g>
<defs>
<clipPath id="clip0_165_624">
<rect width="20" height="20" fill="white"/>
</clipPath>
</defs>
</svg>
