<svg width="80" height="80" viewBox="0 0 80 80" fill="none" xmlns="http://www.w3.org/2000/svg">
<path d="M6.6667 60C6.69001 62.6348 7.48669 65.2047 8.95782 67.3906C10.4289 69.5766 12.5097 71.2823 14.9418 72.2959C17.3739 73.3096 20.0501 73.5866 22.6383 73.0925C25.2264 72.5984 27.6124 71.355 29.5 69.5167L40 59.0167L50.4834 69.5C53.0051 72.024 56.4263 73.4429 59.9941 73.4444C63.562 73.446 66.9844 72.0301 69.5084 69.5084C72.0323 66.9866 73.4512 63.5655 73.4528 59.9976C73.4543 56.4297 72.0385 53.0074 69.5167 50.4834L59.0167 40L69.5 29.5167C70.7358 28.2622 71.7108 26.7753 72.3687 25.1418C73.0266 23.5084 73.3545 21.7609 73.3334 20C73.3101 17.3653 72.5134 14.7954 71.0423 12.6094C69.5711 10.4235 67.4903 8.71783 65.0583 7.70416C62.6262 6.6905 59.9499 6.41352 57.3618 6.9076C54.7737 7.40168 52.3877 8.64506 50.5 10.4834L40 20.9834L29.5167 10.4834C28.2608 9.25064 26.7733 8.27872 25.1399 7.62366C23.5066 6.9686 21.7597 6.64336 20 6.6667C17.3653 6.69001 14.7954 7.48669 12.6094 8.95782C10.4235 10.4289 8.71783 12.5097 7.70416 14.9418C6.6905 17.3739 6.41352 20.0501 6.9076 22.6383C7.40168 25.2264 8.64506 27.6124 10.4834 29.5L20.9834 40L10.4834 50.4834C9.25063 51.7393 8.27872 53.2268 7.62366 54.8602C6.9686 56.4935 6.64336 58.2404 6.6667 60ZM67.15 52.85C69.0486 54.7486 70.1151 57.3235 70.1151 60.0084C70.1151 62.6933 69.0486 65.2682 67.15 67.1667C65.2515 69.0652 62.6766 70.1318 59.9917 70.1318C57.3068 70.1318 54.7319 69.0652 52.8334 67.1667L42.35 56.6667L56.6667 42.35L67.15 52.85ZM12.85 27.15C11.9262 26.2056 11.1987 25.0875 10.7096 23.8602C10.2204 22.633 9.97923 21.321 10 20C10.0206 18.0205 10.6215 16.0905 11.7282 14.4492C12.835 12.8079 14.399 11.5273 16.2264 10.7662C18.0539 10.005 20.0645 9.79675 22.0091 10.1672C23.9538 10.5376 25.747 11.4704 27.1667 12.85L37.65 23.3334L23.3334 37.65L12.85 27.15ZM52.85 12.8334C54.7486 10.9349 57.3235 9.86829 60.0084 9.86829C62.6933 9.86829 65.2682 10.9349 67.1667 12.8334C69.0652 14.7319 70.1318 17.3068 70.1318 19.9917C70.1318 22.6766 69.0652 25.2515 67.1667 27.15L27.1667 67.15C26.2203 68.0759 25.0994 68.8045 23.8692 69.2938C22.6389 69.783 21.3238 70.0231 20 70C18.0205 69.9795 16.0905 69.3786 14.4492 68.2718C12.8079 67.1651 11.5273 65.6011 10.7662 63.7737C10.005 61.9462 9.79675 59.9356 10.1672 57.991C10.5376 56.0463 11.4704 54.2531 12.85 52.8334L52.85 12.8334Z" fill="black"/>
<path d="M34.9999 51.3667C35.8386 51.3684 36.6694 51.2043 37.4445 50.884C38.2196 50.5636 38.9238 50.0933 39.5166 49.5L49.5166 39.5C50.6177 38.2859 51.2097 36.6947 51.1697 35.0561C51.1297 33.4175 50.461 31.857 49.302 30.698C48.1429 29.539 46.5825 28.8702 44.9439 28.8303C43.3053 28.7903 41.7141 29.3822 40.4999 30.4834L30.4999 40.4834C29.6046 41.3728 28.9938 42.5084 28.7451 43.7457C28.4965 44.9831 28.6212 46.2664 29.1035 47.4327C29.5857 48.5991 30.4037 49.5957 31.4536 50.2962C32.5035 50.9966 33.7378 51.3692 34.9999 51.3667ZM32.8499 42.8334L42.8499 32.8334C43.4224 32.2609 44.1987 31.9394 45.0083 31.9394C45.8178 31.9394 46.5942 32.2609 47.1666 32.8334C47.739 33.4058 48.0606 34.1822 48.0606 34.9917C48.0606 35.8012 47.739 36.5776 47.1666 37.15L37.1666 47.15C36.5942 47.7224 35.8178 48.044 35.0083 48.044C34.1987 48.044 33.4224 47.7224 32.8499 47.15C32.2775 46.5776 31.9559 45.8012 31.9559 44.9917C31.9559 44.1822 32.2775 43.4058 32.8499 42.8334Z" fill="black"/>
<path d="M56.6667 18.3333C57.5871 18.3333 58.3333 17.5871 58.3333 16.6667C58.3333 15.7462 57.5871 15 56.6667 15C55.7462 15 55 15.7462 55 16.6667C55 17.5871 55.7462 18.3333 56.6667 18.3333Z" fill="black"/>
<path d="M63.3334 18.3333C64.2539 18.3333 65.0001 17.5871 65.0001 16.6667C65.0001 15.7462 64.2539 15 63.3334 15C62.4129 15 61.6667 15.7462 61.6667 16.6667C61.6667 17.5871 62.4129 18.3333 63.3334 18.3333Z" fill="black"/>
<path d="M56.6667 25.0001C57.5871 25.0001 58.3333 24.2539 58.3333 23.3334C58.3333 22.4129 57.5871 21.6667 56.6667 21.6667C55.7462 21.6667 55 22.4129 55 23.3334C55 24.2539 55.7462 25.0001 56.6667 25.0001Z" fill="black"/>
<path d="M63.3334 25.0001C64.2539 25.0001 65.0001 24.2539 65.0001 23.3334C65.0001 22.4129 64.2539 21.6667 63.3334 21.6667C62.4129 21.6667 61.6667 22.4129 61.6667 23.3334C61.6667 24.2539 62.4129 25.0001 63.3334 25.0001Z" fill="black"/>
<path d="M16.6667 58.3333C17.5871 58.3333 18.3333 57.5871 18.3333 56.6667C18.3333 55.7462 17.5871 55 16.6667 55C15.7462 55 15 55.7462 15 56.6667C15 57.5871 15.7462 58.3333 16.6667 58.3333Z" fill="black"/>
<path d="M23.3334 58.3333C24.2539 58.3333 25.0001 57.5871 25.0001 56.6667C25.0001 55.7462 24.2539 55 23.3334 55C22.4129 55 21.6667 55.7462 21.6667 56.6667C21.6667 57.5871 22.4129 58.3333 23.3334 58.3333Z" fill="black"/>
<path d="M16.6667 65.0001C17.5871 65.0001 18.3333 64.2539 18.3333 63.3334C18.3333 62.4129 17.5871 61.6667 16.6667 61.6667C15.7462 61.6667 15 62.4129 15 63.3334C15 64.2539 15.7462 65.0001 16.6667 65.0001Z" fill="black"/>
<path d="M23.3334 65.0001C24.2539 65.0001 25.0001 64.2539 25.0001 63.3334C25.0001 62.4129 24.2539 61.6667 23.3334 61.6667C22.4129 61.6667 21.6667 62.4129 21.6667 63.3334C21.6667 64.2539 22.4129 65.0001 23.3334 65.0001Z" fill="black"/>
<path d="M56.6667 58.3333C57.5871 58.3333 58.3333 57.5871 58.3333 56.6667C58.3333 55.7462 57.5871 55 56.6667 55C55.7462 55 55 55.7462 55 56.6667C55 57.5871 55.7462 58.3333 56.6667 58.3333Z" fill="black"/>
<path d="M63.3334 58.3333C64.2539 58.3333 65.0001 57.5871 65.0001 56.6667C65.0001 55.7462 64.2539 55 63.3334 55C62.4129 55 61.6667 55.7462 61.6667 56.6667C61.6667 57.5871 62.4129 58.3333 63.3334 58.3333Z" fill="black"/>
<path d="M56.6667 65.0001C57.5871 65.0001 58.3333 64.2539 58.3333 63.3334C58.3333 62.4129 57.5871 61.6667 56.6667 61.6667C55.7462 61.6667 55 62.4129 55 63.3334C55 64.2539 55.7462 65.0001 56.6667 65.0001Z" fill="black"/>
<path d="M63.3334 65.0001C64.2539 65.0001 65.0001 64.2539 65.0001 63.3334C65.0001 62.4129 64.2539 61.6667 63.3334 61.6667C62.4129 61.6667 61.6667 62.4129 61.6667 63.3334C61.6667 64.2539 62.4129 65.0001 63.3334 65.0001Z" fill="black"/>
<path d="M17.4999 19.1666C18.4204 19.1666 19.1666 18.4204 19.1666 17.4999C19.1666 16.5794 18.4204 15.8333 17.4999 15.8333C16.5794 15.8333 15.8333 16.5794 15.8333 17.4999C15.8333 18.4204 16.5794 19.1666 17.4999 19.1666Z" fill="black"/>
<path d="M24.1667 19.1666C25.0871 19.1666 25.8333 18.4204 25.8333 17.4999C25.8333 16.5794 25.0871 15.8333 24.1667 15.8333C23.2462 15.8333 22.5 16.5794 22.5 17.4999C22.5 18.4204 23.2462 19.1666 24.1667 19.1666Z" fill="black"/>
<path d="M17.4999 25.8333C18.4204 25.8333 19.1666 25.0871 19.1666 24.1667C19.1666 23.2462 18.4204 22.5 17.4999 22.5C16.5794 22.5 15.8333 23.2462 15.8333 24.1667C15.8333 25.0871 16.5794 25.8333 17.4999 25.8333Z" fill="black"/>
<path d="M24.1667 25.8333C25.0871 25.8333 25.8333 25.0871 25.8333 24.1667C25.8333 23.2462 25.0871 22.5 24.1667 22.5C23.2462 22.5 22.5 23.2462 22.5 24.1667C22.5 25.0871 23.2462 25.8333 24.1667 25.8333Z" fill="black"/>
</svg>
