<svg width="15" height="15" viewBox="0 0 15 15" fill="none" xmlns="http://www.w3.org/2000/svg">
<g clip-path="url(#clip0_186_1215)">
<path d="M12.104 1.15524H11.5445V0.589094C11.5445 0.265625 11.2823 0.00341797 10.9588 0.00341797C10.6353 0.00341797 10.3731 0.265625 10.3731 0.589094V1.15524H4.62685V0.589094C4.62685 0.265625 4.36464 0.00341797 4.04117 0.00341797C3.7177 0.00341797 3.45549 0.265625 3.45549 0.589094V1.15524H2.89602C1.29915 1.15524 0 2.45438 0 4.05123V12.1007C0 13.6976 1.29915 14.9967 2.89602 14.9967H12.104C13.7009 14.9967 15 13.6976 15 12.1007V4.05123C15 2.45438 13.7009 1.15524 12.104 1.15524ZM2.89602 2.32659H3.45549V3.46866C3.45549 3.79213 3.7177 4.05434 4.04117 4.05434C4.36464 4.05434 4.62685 3.79213 4.62685 3.46866V2.32659H10.3732V3.46866C10.3732 3.79213 10.6354 4.05434 10.9588 4.05434C11.2823 4.05434 11.5445 3.79213 11.5445 3.46866V2.32659H12.104C13.055 2.32659 13.8286 3.10027 13.8286 4.05123V4.61073H1.17135V4.05123C1.17135 3.10027 1.94503 2.32659 2.89602 2.32659ZM12.104 13.8254H2.89602C1.94503 13.8254 1.17135 13.0517 1.17135 12.1007V5.78208H13.8286V12.1007C13.8286 13.0517 13.055 13.8254 12.104 13.8254ZM5.20277 8.08575C5.20277 8.40922 4.94056 8.67142 4.61709 8.67142H3.46527C3.1418 8.67142 2.8796 8.40922 2.8796 8.08575C2.8796 7.76228 3.1418 7.50007 3.46527 7.50007H4.61709C4.94053 7.50007 5.20277 7.76228 5.20277 8.08575ZM12.1204 8.08575C12.1204 8.40922 11.8582 8.67142 11.5348 8.67142H10.3829C10.0595 8.67142 9.79726 8.40922 9.79726 8.08575C9.79726 7.76228 10.0595 7.50007 10.3829 7.50007H11.5348C11.8582 7.50007 12.1204 7.76228 12.1204 8.08575ZM8.65826 8.08575C8.65826 8.40922 8.39606 8.67142 8.07259 8.67142H6.92077C6.5973 8.67142 6.33509 8.40922 6.33509 8.08575C6.33509 7.76228 6.5973 7.50007 6.92077 7.50007H8.07259C8.39603 7.50007 8.65826 7.76228 8.65826 8.08575ZM5.20277 11.5412C5.20277 11.8647 4.94056 12.1269 4.61709 12.1269H3.46527C3.1418 12.1269 2.8796 11.8647 2.8796 11.5412C2.8796 11.2178 3.1418 10.9556 3.46527 10.9556H4.61709C4.94053 10.9556 5.20277 11.2178 5.20277 11.5412ZM12.1204 11.5412C12.1204 11.8647 11.8582 12.1269 11.5348 12.1269H10.3829C10.0595 12.1269 9.79726 11.8647 9.79726 11.5412C9.79726 11.2178 10.0595 10.9556 10.3829 10.9556H11.5348C11.8582 10.9556 12.1204 11.2178 12.1204 11.5412ZM8.65826 11.5412C8.65826 11.8647 8.39606 12.1269 8.07259 12.1269H6.92077C6.5973 12.1269 6.33509 11.8647 6.33509 11.5412C6.33509 11.2178 6.5973 10.9556 6.92077 10.9556H8.07259C8.39603 10.9556 8.65826 11.2178 8.65826 11.5412Z" fill="#339966"/>
</g>
<defs>
<clipPath id="clip0_186_1215">
<rect width="15" height="15" fill="white"/>
</clipPath>
</defs>
</svg>
