<svg width="24" height="24" viewBox="0 0 24 24" fill="none" xmlns="http://www.w3.org/2000/svg">
<path d="M19.6831 7.27536H18.2057V6.19632C18.2057 6.11994 18.1753 6.04668 18.1213 5.99267C18.0673 5.93866 17.994 5.90832 17.9177 5.90832H16.5871L15.5311 4.26048C15.3515 3.97911 15.1037 3.74765 14.8108 3.58755C14.5178 3.42746 14.1892 3.3439 13.8554 3.34464H10.242C9.90815 3.34386 9.57953 3.42739 9.2866 3.5875C8.99366 3.7476 8.74591 3.97908 8.5663 4.26048L7.5103 5.90832H6.1783C6.10192 5.90832 6.02867 5.93866 5.97466 5.99267C5.92065 6.04668 5.8903 6.11994 5.8903 6.19632V7.27536H4.41286C3.63662 7.27638 2.89246 7.58519 2.34358 8.13407C1.79469 8.68296 1.48588 9.42712 1.48486 10.2034V19.8514C1.48588 20.6276 1.79469 21.3718 2.34358 21.9206C2.89246 22.4695 3.63662 22.7783 4.41286 22.7794H19.6831C20.4593 22.7783 21.2035 22.4695 21.7524 21.9206C22.3013 21.3718 22.6101 20.6276 22.6111 19.8514V10.2034C22.6101 9.42712 22.3013 8.68296 21.7524 8.13407C21.2035 7.58519 20.4593 7.27638 19.6831 7.27536ZM22.0351 19.8542C22.0342 20.4778 21.7861 21.0755 21.3452 21.5164C20.9043 21.9573 20.3066 22.2053 19.6831 22.2062H4.41286C3.78935 22.2053 3.19162 21.9573 2.75073 21.5164C2.30984 21.0755 2.06175 20.4778 2.06086 19.8542V10.2062C2.06175 9.58272 2.30984 8.985 2.75073 8.54411C3.19162 8.10321 3.78935 7.85513 4.41286 7.85424H19.6831C20.3066 7.85513 20.9043 8.10321 21.3452 8.54411C21.7861 8.985 22.0342 9.58272 22.0351 10.2062V19.8542ZM6.4663 6.48432H7.6663C7.71416 6.48392 7.76117 6.4716 7.80308 6.44847C7.84498 6.42534 7.88046 6.39213 7.9063 6.35184L9.0487 4.57152C9.17634 4.37153 9.35242 4.20701 9.5606 4.09323C9.76878 3.97945 10.0023 3.92008 10.2396 3.92064H13.8511C14.0883 3.92012 14.3219 3.97951 14.5301 4.09329C14.7382 4.20707 14.9143 4.37156 15.042 4.57152L16.1844 6.35136C16.2102 6.39165 16.2457 6.42486 16.2876 6.44799C16.3295 6.47112 16.3765 6.48344 16.4244 6.48384H17.6244V7.21776H15.8709L14.4266 4.96752C14.365 4.87161 14.2801 4.79278 14.18 4.73834C14.0798 4.68389 13.9675 4.65557 13.8535 4.656H10.242C10.1278 4.65572 10.0155 4.68426 9.91528 4.73897C9.81509 4.79367 9.73034 4.87278 9.66886 4.96896L8.22454 7.2192H6.4663V6.48432ZM10.1537 5.28C10.1631 5.26513 10.1761 5.25292 10.1916 5.24452C10.207 5.23612 10.2244 5.23181 10.242 5.232H13.8535C13.8711 5.23181 13.8884 5.23612 13.9039 5.24452C13.9194 5.25292 13.9324 5.26513 13.9418 5.28L15.2229 7.27584H8.87302L10.1537 5.28Z" fill="white"/>
<path d="M12.0478 9.73488C11.0008 9.73488 9.97727 10.0454 9.10668 10.6271C8.2361 11.2088 7.55757 12.0356 7.15688 13.0029C6.7562 13.9702 6.65136 15.0347 6.85563 16.0616C7.0599 17.0885 7.56409 18.0318 8.30446 18.7722C9.04483 19.5125 9.98812 20.0167 11.015 20.221C12.042 20.4253 13.1064 20.3204 14.0737 19.9197C15.0411 19.5191 15.8679 18.8405 16.4496 17.9699C17.0313 17.0994 17.3418 16.0758 17.3418 15.0288C17.3401 13.6253 16.7818 12.2797 15.7894 11.2873C14.7969 10.2948 13.4514 9.73653 12.0478 9.73488ZM12.0478 19.7472C11.1147 19.7472 10.2026 19.4705 9.42669 18.9521C8.65084 18.4337 8.04613 17.6968 7.68904 16.8348C7.33195 15.9727 7.23852 15.024 7.42056 14.1089C7.6026 13.1937 8.05194 12.353 8.71176 11.6932C9.37157 11.0334 10.2122 10.5841 11.1274 10.402C12.0426 10.22 12.9912 10.3134 13.8533 10.6705C14.7154 11.0276 15.4522 11.6323 15.9706 12.4081C16.4891 13.184 16.7658 14.0962 16.7658 15.0293C16.7644 16.2801 16.2668 17.4793 15.3824 18.3638C14.4979 19.2483 13.2987 19.7458 12.0478 19.7472Z" fill="white"/>
<path d="M15.2639 13.7088H13.3675V11.8114C13.3675 11.735 13.3371 11.6617 13.2831 11.6077C13.2291 11.5537 13.1558 11.5234 13.0795 11.5234H11.0155C10.9391 11.5234 10.8658 11.5537 10.8118 11.6077C10.7578 11.6617 10.7275 11.735 10.7275 11.8114V13.7088H8.83195C8.75556 13.7088 8.68231 13.7391 8.6283 13.7932C8.57429 13.8472 8.54395 13.9204 8.54395 13.9968V16.0608C8.54395 16.1372 8.57429 16.2104 8.6283 16.2644C8.68231 16.3185 8.75556 16.3488 8.83195 16.3488H10.7294V18.2462C10.7294 18.3226 10.7597 18.3959 10.8137 18.4499C10.8677 18.5039 10.941 18.5342 11.0174 18.5342H13.0814C13.1578 18.5342 13.231 18.5039 13.285 18.4499C13.339 18.3959 13.3694 18.3226 13.3694 18.2462V16.3493H15.2639C15.3403 16.3493 15.4136 16.3189 15.4676 16.2649C15.5216 16.2109 15.5519 16.1377 15.5519 16.0613V13.9973C15.552 13.9594 15.5446 13.9219 15.5302 13.8869C15.5157 13.8519 15.4945 13.8201 15.4678 13.7933C15.441 13.7665 15.4092 13.7453 15.3743 13.7308C15.3393 13.7163 15.3018 13.7088 15.2639 13.7088ZM14.9759 15.7728H13.0795C13.0031 15.7728 12.9298 15.8031 12.8758 15.8572C12.8218 15.9112 12.7915 15.9844 12.7915 16.0608V17.9582H11.3035V16.0613C11.3035 15.9849 11.2731 15.9116 11.2191 15.8576C11.1651 15.8036 11.0918 15.7733 11.0155 15.7733H9.11995V14.2853H11.0174C11.0938 14.2853 11.167 14.2549 11.221 14.2009C11.275 14.1469 11.3054 14.0737 11.3054 13.9973V12.0994H12.7934V13.9968C12.7934 14.0732 12.8237 14.1464 12.8777 14.2004C12.9317 14.2545 13.005 14.2848 13.0814 14.2848H14.9759V15.7728Z" fill="white"/>
</svg>
