<svg width="50" height="50" viewBox="0 0 50 50" fill="none" xmlns="http://www.w3.org/2000/svg">
<path d="M33.7551 23.5154C33.7517 23.5154 33.7483 23.5154 33.7448 23.5154H29.5576V19.3179C29.5633 18.4713 28.8815 17.7803 28.035 17.7747C28.0315 17.7747 28.028 17.7747 28.0247 17.7747H21.9753C21.1287 17.7747 20.4424 18.461 20.4424 19.3076V23.5051H16.2551C15.4085 23.4995 14.7176 24.181 14.7119 25.0276C14.7119 25.0346 14.7119 25.0414 14.7119 25.0483V31.0874C14.7119 31.934 15.3983 32.6203 16.2448 32.6203H20.4424V36.8076C20.4367 37.6542 21.1184 38.3451 21.965 38.3508C21.9685 38.3508 21.9719 38.3508 21.9753 38.3508H28.0144C28.861 38.3508 29.5473 37.6644 29.5473 36.8179V32.6203H33.7448C34.5914 32.626 35.2824 31.9443 35.288 31.0977C35.288 31.0942 35.288 31.0908 35.288 31.0874V25.0483C35.288 24.2017 34.6018 23.5154 33.7551 23.5154ZM33.2304 30.5627H28.5288C27.9606 30.5627 27.5 31.0234 27.5 31.5915V36.2932H22.5V31.5915C22.5 31.0234 22.0393 30.5627 21.4712 30.5627H16.7695V25.573H21.4712C22.0393 25.573 22.5 25.1124 22.5 24.5442V19.8323H27.4897V24.5339C27.4897 25.1021 27.9503 25.5627 28.5185 25.5627H33.2304V30.5627Z" fill="#339966"/>
<path d="M42.9012 10.0793H34.4239V6.45786C34.4772 4.80534 33.1808 3.42236 31.5283 3.369C31.4441 3.36629 31.3598 3.36707 31.2757 3.37144H18.7243C17.073 3.2854 15.6647 4.55418 15.5786 6.20529C15.5742 6.28939 15.5733 6.37362 15.5761 6.45786V10.0587H7.09877C3.82716 10.0587 0 11.9208 0 17.1574V39.534C0 44.7706 3.82716 46.6328 7.09877 46.6328H42.9012C46.1728 46.6328 50 44.7706 50 39.534V17.178C50 11.9414 46.1831 10.0793 42.9012 10.0793ZM17.6337 6.45786C17.6337 6.1595 17.6337 5.35704 18.7346 5.35704H31.2757C32.3765 5.35704 32.3765 6.14922 32.3765 6.45786V10.0587H17.6337V6.45786ZM47.9424 39.534C47.9424 44.0813 44.4239 44.5751 42.9012 44.5751H7.09877C5.58642 44.5751 2.05761 44.0813 2.05761 39.534V17.178C2.05761 12.6307 5.57613 12.1369 7.09877 12.1369H42.9012C44.4136 12.1369 47.9424 12.6307 47.9424 17.178V39.534Z" fill="#339966"/>
</svg>
