<svg width="50" height="50" viewBox="0 0 50 50" fill="none" xmlns="http://www.w3.org/2000/svg">
<path d="M48.5352 23.5351H46.5646C47.4702 21.7352 47.9492 19.7354 47.9492 17.6619C47.9492 14.1662 46.5879 10.8797 44.1161 8.40779C41.6442 5.93591 38.3577 4.57458 34.862 4.57458C31.3663 4.57458 28.0798 5.93591 25.6079 8.40779L25 9.0157L24.3921 8.40789C21.9202 5.93601 18.6338 4.57468 15.138 4.57468C11.6422 4.57468 8.35576 5.93601 5.88389 8.40779C3.41211 10.8797 2.05078 14.1662 2.05078 17.6619C2.05078 19.7353 2.52979 21.7352 3.43535 23.5351H1.46484C0.655859 23.5351 0 24.191 0 25C0 25.809 0.655859 26.4648 1.46484 26.4648H5.45371C5.59326 26.6179 5.73652 26.7685 5.88398 26.916L23.9643 44.9963C24.2503 45.2823 24.6252 45.4254 25 45.4254C25.3748 45.4254 25.7498 45.2824 26.0357 44.9963L44.116 26.916C44.2635 26.7685 44.4067 26.6179 44.5463 26.4648H48.5352C49.3441 26.4648 50 25.809 50 25C50 24.191 49.3441 23.5351 48.5352 23.5351ZM4.98047 17.6619C4.98047 14.9487 6.03701 12.3979 7.95557 10.4794C9.87402 8.56082 12.4248 7.50427 15.138 7.50427C17.8512 7.50427 20.402 8.56082 22.3205 10.4794L23.9642 12.123C24.5361 12.6951 25.4637 12.6951 26.0357 12.123L27.6794 10.4794C29.5979 8.56082 32.1487 7.50427 34.8619 7.50427C37.5751 7.50427 40.1259 8.56082 42.0444 10.4794C43.963 12.3979 45.0195 14.9487 45.0195 17.6619C45.0195 19.7965 44.3651 21.8303 43.152 23.5351H35.4741L32.1945 18.3568C31.9197 17.9229 31.4383 17.6653 30.9244 17.6761C30.411 17.6876 29.9411 17.967 29.6858 18.4127L24.8836 26.7975L18.6895 14.5723C18.4314 14.0631 17.899 13.7493 17.3306 13.7705C16.7601 13.7908 16.2533 14.1408 16.0322 14.6672L12.3077 23.5351H6.84805C5.63486 21.8303 4.98047 19.7966 4.98047 17.6619ZM25 41.8888L9.57598 26.4648H13.2812C13.8711 26.4648 14.4034 26.111 14.6318 25.5673L17.5072 18.7211L23.498 30.5449C23.7414 31.0254 24.2288 31.3335 24.7673 31.3472C24.7799 31.3475 24.7924 31.3477 24.8049 31.3477C25.3289 31.3477 25.8145 31.0673 26.0759 30.6109L31.0201 21.9781L33.4305 25.784C33.699 26.2078 34.166 26.4648 34.668 26.4648H40.424L25 41.8888Z" fill="#339966"/>
</svg>
