<svg width="80" height="80" viewBox="0 0 80 80" fill="none" xmlns="http://www.w3.org/2000/svg">
<path d="M65.6095 24.2511H60.6847V20.6543C60.6847 20.3997 60.5836 20.1555 60.4036 19.9755C60.2235 19.7954 59.9793 19.6943 59.7247 19.6943H55.2895L51.7695 14.2015C51.1707 13.2636 50.3449 12.4921 49.3684 11.9584C48.392 11.4248 47.2967 11.1462 46.1839 11.1487H34.1391C33.0264 11.1461 31.931 11.4245 30.9545 11.9582C29.9781 12.4919 29.1522 13.2635 28.5535 14.2015L25.0335 19.6943H20.5935C20.3389 19.6943 20.0947 19.7954 19.9147 19.9755C19.7347 20.1555 19.6335 20.3997 19.6335 20.6543V24.2511H14.7087C12.1213 24.2545 9.64073 25.2839 7.81111 27.1135C5.98149 28.9431 4.95212 31.4236 4.94873 34.0111V66.1711C4.95212 68.7586 5.98149 71.2391 7.81111 73.0687C9.64073 74.8983 12.1213 75.9277 14.7087 75.9311H65.6095C68.197 75.9277 70.6775 74.8983 72.5072 73.0687C74.3368 71.2391 75.3661 68.7586 75.3695 66.1711V34.0111C75.3661 31.4236 74.3368 28.9431 72.5072 27.1135C70.6775 25.2839 68.197 24.2545 65.6095 24.2511ZM73.4495 66.1807C73.4466 68.2591 72.6196 70.2515 71.15 71.7211C69.6803 73.1908 67.6879 74.0177 65.6095 74.0207H14.7087C12.6303 74.0177 10.6379 73.1908 9.16829 71.7211C7.69864 70.2515 6.87169 68.2591 6.86873 66.1807V34.0207C6.87169 31.9423 7.69864 29.9499 9.16829 28.4803C10.6379 27.0106 12.6303 26.1837 14.7087 26.1807H65.6095C67.6879 26.1837 69.6803 27.0106 71.15 28.4803C72.6196 29.9499 73.4466 31.9423 73.4495 34.0207V66.1807ZM21.5535 21.6143H25.5535C25.7131 21.613 25.8698 21.5719 26.0094 21.4948C26.1491 21.4177 26.2674 21.307 26.3535 21.1727L30.1615 15.2383C30.587 14.5717 31.1739 14.0233 31.8679 13.644C32.5618 13.2647 33.3403 13.0668 34.1311 13.0687H46.1695C46.9603 13.067 47.7388 13.2649 48.4327 13.6442C49.1266 14.0235 49.7136 14.5718 50.1391 15.2383L53.9471 21.1711C54.0333 21.3054 54.1515 21.4161 54.2912 21.4932C54.4309 21.5703 54.5876 21.6114 54.7471 21.6127H58.7471V24.0591H52.9023L48.0879 16.5583C47.8824 16.2386 47.5997 15.9758 47.2658 15.7943C46.9319 15.6129 46.5576 15.5185 46.1775 15.5199H34.1391C33.7586 15.519 33.3841 15.6141 33.0501 15.7965C32.7162 15.9788 32.4337 16.2425 32.2287 16.5631L27.4143 24.0639H21.5535V21.6143ZM33.8447 17.5999C33.8761 17.5503 33.9196 17.5096 33.9711 17.4816C34.0227 17.4536 34.0805 17.4393 34.1391 17.4399H46.1775C46.2362 17.4393 46.294 17.4536 46.3455 17.4816C46.3971 17.5096 46.4406 17.5503 46.4719 17.5999L50.7423 24.2527H29.5759L33.8447 17.5999Z" fill="black"/>
<path d="M40.1601 32.4497C36.67 32.4497 33.2582 33.4847 30.3563 35.4237C27.4543 37.3627 25.1925 40.1187 23.8569 43.3431C22.5213 46.5676 22.1719 50.1157 22.8528 53.5388C23.5336 56.9618 25.2143 60.1061 27.6822 62.574C30.1501 65.0419 33.2944 66.7226 36.7174 67.4034C40.1405 68.0843 43.6886 67.7349 46.9131 66.3993C50.1375 65.0636 52.8935 62.8019 54.8325 59.8999C56.7715 56.998 57.8065 53.5862 57.8065 50.0961C57.801 45.4177 55.94 40.9325 52.6319 37.6243C49.3237 34.3162 44.8385 32.4552 40.1601 32.4497ZM40.1601 65.8241C37.0497 65.8241 34.0092 64.9018 31.423 63.1737C28.8368 61.4457 26.8211 58.9896 25.6308 56.1159C24.4405 53.2423 24.1291 50.0803 24.7359 47.0296C25.3427 43.979 26.8405 41.1768 29.0398 38.9775C31.2392 36.7781 34.0414 35.2803 37.092 34.6735C40.1426 34.0667 43.3047 34.3781 46.1783 35.5684C49.0519 36.7587 51.5081 38.7744 53.2361 41.3606C54.9641 43.9468 55.8865 46.9873 55.8865 50.0977C55.8818 54.2672 54.2234 58.2646 51.2752 61.2128C48.3269 64.1611 44.3295 65.8195 40.1601 65.8241Z" fill="black"/>
<path d="M50.88 45.6959H44.5584V39.3711C44.5584 39.1165 44.4572 38.8723 44.2772 38.6923C44.0972 38.5123 43.853 38.4111 43.5984 38.4111H36.7184C36.4638 38.4111 36.2196 38.5123 36.0396 38.6923C35.8595 38.8723 35.7584 39.1165 35.7584 39.3711V45.6959H29.44C29.1854 45.6959 28.9412 45.7971 28.7612 45.9771C28.5811 46.1571 28.48 46.4013 28.48 46.6559V53.5359C28.48 53.7905 28.5811 54.0347 28.7612 54.2148C28.9412 54.3948 29.1854 54.4959 29.44 54.4959H35.7648V60.8207C35.7648 61.0753 35.8659 61.3195 36.046 61.4996C36.226 61.6796 36.4702 61.7807 36.7248 61.7807H43.6048C43.8594 61.7807 44.1036 61.6796 44.2836 61.4996C44.4636 61.3195 44.5648 61.0753 44.5648 60.8207V54.4975H50.88C51.1346 54.4975 51.3788 54.3964 51.5588 54.2164C51.7388 54.0363 51.84 53.7921 51.84 53.5375V46.6575C51.8402 46.5313 51.8155 46.4063 51.7674 46.2897C51.7192 46.173 51.6485 46.067 51.5594 45.9777C51.4702 45.8884 51.3643 45.8175 51.2477 45.7692C51.1311 45.7208 51.0062 45.6959 50.88 45.6959ZM49.92 52.5759H43.5984C43.3438 52.5759 43.0996 52.6771 42.9196 52.8571C42.7395 53.0371 42.6384 53.2813 42.6384 53.5359V59.8607H37.6784V53.5375C37.6784 53.2829 37.5772 53.0387 37.3972 52.8587C37.2172 52.6787 36.973 52.5775 36.7184 52.5775H30.4V47.6175H36.7248C36.9794 47.6175 37.2236 47.5164 37.4036 47.3364C37.5836 47.1563 37.6848 46.9121 37.6848 46.6575V40.3311H42.6448V46.6559C42.6448 46.9105 42.7459 47.1547 42.926 47.3348C43.106 47.5148 43.3502 47.6159 43.6048 47.6159H49.92V52.5759Z" fill="black"/>
</svg>
