<svg width="24" height="24" viewBox="0 0 24 24" fill="none" xmlns="http://www.w3.org/2000/svg">
<path d="M17.1151 3.90192C15.7644 3.41328 13.974 3.144 12.0751 3.144C10.1763 3.144 8.38537 3.41328 7.03513 3.90192C5.59225 4.42368 4.79785 5.15472 4.79785 5.96064V18.4238C4.79785 19.2293 5.59225 19.9598 7.03513 20.4826C8.38585 20.9712 10.1763 21.2405 12.0751 21.2405C13.974 21.2405 15.7649 20.9712 17.1151 20.4826C18.558 19.9608 19.3524 19.2298 19.3524 18.4238V5.96064C19.3524 5.1552 18.558 4.42368 17.1151 3.90192ZM12.0751 3.72C16.0251 3.72 18.7774 4.9008 18.7774 5.96016C18.7774 7.01952 16.0251 8.20032 12.0751 8.20032C8.12521 8.20032 5.37289 7.01952 5.37289 5.96016C5.37289 4.9008 8.12473 3.72048 12.0742 3.72048L12.0751 3.72ZM10.1139 18.7248V16.021L12.0751 16.8562L14.0364 16.021V18.7248L12.0751 17.8896L10.1139 18.7248ZM10.1139 13.2638V10.56L12.0751 11.3952L14.0359 10.56V13.2638L12.0747 12.4286L10.1139 13.2638ZM5.37289 18.4238V16.825C5.41609 16.8552 5.45881 16.8854 5.50201 16.9142L5.74201 17.075L6.06361 16.595L5.82361 16.4342C5.73001 16.3714 5.63545 16.3042 5.54281 16.2341L5.37289 16.1059V13.5058C5.41609 13.536 5.45881 13.5662 5.50201 13.595L5.74201 13.7558L6.06361 13.2758L5.82361 13.115C5.73001 13.0522 5.63593 12.985 5.54281 12.9149L5.37289 12.7872V10.2331C5.41609 10.2634 5.45881 10.2936 5.50201 10.3224L5.74201 10.4832L6.06361 10.0032L5.82361 9.8424C5.73001 9.77952 5.63545 9.71232 5.54281 9.64224L5.37289 9.51408V7.09488C5.75209 7.44432 6.31177 7.75776 7.03417 8.01936C8.31625 8.48304 9.99481 8.74848 11.7862 8.7744V10.6464L9.53689 9.6864V10.9579L9.41545 10.9488L9.12745 10.9253L9.07945 11.5013L9.36745 11.5248L9.53593 11.5378V14.1346L11.7852 13.1746V14.304H11.7142H11.4262V14.88H11.7142H11.7871V16.1093L9.53785 15.1493V17.5522L9.41641 17.543L9.12841 17.5195L9.08041 18.0955L9.36841 18.119L9.53689 18.132V19.5979L11.7862 18.6379V20.6611C7.99177 20.6064 5.37241 19.4578 5.37241 18.4238H5.37289ZM18.7774 18.4238C18.7774 19.4578 16.158 20.6064 12.3631 20.6621V18.6389L14.6124 19.5989V18.1301L14.7723 18.1176L15.0603 18.0941L15.0123 17.5181L14.7243 17.5416L14.6115 17.5502V15.1502L12.3622 16.1102V14.88H12.426H12.714V14.304H12.426H12.3646V13.1779L14.6139 14.1379V11.5378L14.7737 11.5253L15.0617 11.5018L15.0137 10.9258L14.7257 10.9493L14.6129 10.9579V9.6888L12.3636 10.6488V8.7768C14.1555 8.75088 15.834 8.48544 17.1156 8.02176C17.838 7.76064 18.3982 7.44576 18.7769 7.09728V9.51168L18.5979 9.64656C18.5047 9.71664 18.4102 9.78384 18.317 9.84672L18.0771 10.0075L18.3987 10.4875L18.6387 10.3267C18.6867 10.296 18.7308 10.2638 18.7769 10.2307V12.7824L18.5979 12.9173C18.5043 12.9874 18.4097 13.055 18.317 13.1174L18.0771 13.2782L18.3987 13.7582L18.6387 13.5974C18.6867 13.5667 18.7308 13.5346 18.7769 13.5014V16.1035L18.5979 16.2384C18.5047 16.3085 18.4102 16.3757 18.317 16.4386L18.0771 16.5994L18.3987 17.0794L18.6387 16.9186C18.6867 16.8878 18.7308 16.8557 18.7769 16.8226L18.7774 18.4238Z" fill="white"/>
<path d="M12.0746 7.84656C14.8341 7.84656 17.6277 7.19856 17.6277 5.96064C17.6277 4.72272 14.8322 4.07472 12.0746 4.07472C9.317 4.07472 6.52148 4.72272 6.52148 5.96064C6.52148 7.19856 9.31508 7.84656 12.0746 7.84656ZM12.0746 4.65072C15.113 4.65072 17.0517 5.4264 17.0517 5.96064C17.0517 6.49488 15.113 7.27056 12.0746 7.27056C9.0362 7.27056 7.09748 6.49488 7.09748 5.96064C7.09748 5.4264 9.03668 4.65072 12.0746 4.65072Z" fill="white"/>
<path d="M9.56711 6.64896C10.2391 6.75936 11.13 6.82032 12.0751 6.82032C13.0202 6.82032 13.9106 6.75936 14.5831 6.64896C15.4788 6.50208 15.8441 6.3024 15.8441 5.96064C15.8441 5.61888 15.4788 5.41968 14.5831 5.27232C13.9111 5.16192 13.0202 5.10096 12.0751 5.10096C11.13 5.10096 10.2396 5.16192 9.56711 5.27232C8.67143 5.4192 8.30615 5.61888 8.30615 5.96064C8.30615 6.3024 8.67143 6.50208 9.56711 6.64896ZM12.0751 5.67744C13.5934 5.67744 14.5951 5.82816 15.0473 5.96064C14.5951 6.09312 13.5934 6.24384 12.0751 6.24384C10.5569 6.24384 9.55511 6.09312 9.10295 5.96064C9.55511 5.82816 10.5569 5.67744 12.0746 5.67744H12.0751Z" fill="white"/>
<path d="M16.9318 17.1264C16.7288 17.196 16.5128 17.2584 16.2891 17.3112L16.0093 17.376L16.1418 17.9366L16.4221 17.8704C16.6621 17.8133 16.8982 17.7461 17.119 17.6702L17.3917 17.5766L17.2045 17.0318L16.9318 17.1264Z" fill="white"/>
<path d="M7.20887 17.1264L6.93671 17.0328L6.74951 17.5776L7.02215 17.6712C7.24295 17.747 7.47767 17.8152 7.71911 17.8714L7.99943 17.9376L8.13143 17.376L7.85111 17.3098C7.62839 17.2584 7.41191 17.196 7.20887 17.1264Z" fill="white"/>
<path d="M14.7249 14.2243C14.5099 14.2421 14.2857 14.256 14.0395 14.2675L13.7515 14.281L13.7779 14.857L14.0659 14.8435C14.3188 14.832 14.5497 14.8176 14.7719 14.7994L15.0599 14.7758L15.0119 14.1998L14.7249 14.2243Z" fill="white"/>
<path d="M16.9318 13.8072C16.7288 13.8768 16.5128 13.9392 16.2891 13.992L16.0088 14.0582L16.1413 14.6189L16.4216 14.5526C16.6616 14.4955 16.8978 14.4283 17.1185 14.3525L17.3912 14.2589L17.204 13.7141L16.9318 13.8072Z" fill="white"/>
<path d="M10.0746 14.8426L10.3626 14.856L10.389 14.28L10.101 14.2666C9.85479 14.255 9.63063 14.2411 9.41559 14.2234L9.12759 14.1998L9.07959 14.7758L9.36759 14.7994C9.59079 14.8166 9.82167 14.832 10.0746 14.8426Z" fill="white"/>
<path d="M7.20887 13.8072L6.93671 13.7136L6.74951 14.2584L7.02215 14.352C7.24295 14.4278 7.47767 14.496 7.71911 14.5522L7.99943 14.6184L8.13191 14.0578L7.85159 13.9915C7.62839 13.9392 7.41191 13.8773 7.20887 13.8072Z" fill="white"/>
<path d="M16.9318 10.5341C16.7288 10.6037 16.5128 10.6661 16.2891 10.7189L16.0088 10.7851L16.1413 11.3458L16.4216 11.2795C16.6616 11.2224 16.8978 11.1552 17.1185 11.0794L17.3912 10.9858L17.204 10.441L16.9318 10.5341Z" fill="white"/>
<path d="M7.20887 10.5346L6.93671 10.441L6.74951 10.9858L7.02215 11.0794C7.24295 11.1552 7.47767 11.2234 7.71911 11.2795L7.99943 11.3458L8.13191 10.7851L7.85159 10.7189C7.62839 10.6661 7.41191 10.6042 7.20887 10.5346Z" fill="white"/>
</svg>
