<svg width="13" height="15" viewBox="0 0 13 15" fill="none" xmlns="http://www.w3.org/2000/svg">
<path d="M6.50009 0.0262451C4.8463 0.0280645 3.26076 0.685792 2.0913 1.85514C0.921835 3.02448 0.263948 4.60996 0.261963 6.26374C0.261963 7.86999 1.50571 10.3837 3.95884 13.735C4.25088 14.1351 4.63325 14.4605 5.07484 14.6849C5.51643 14.9093 6.00476 15.0263 6.50009 15.0263C6.99542 15.0263 7.48375 14.9093 7.92534 14.6849C8.36693 14.4605 8.7493 14.1351 9.04134 13.735C11.4945 10.3837 12.7382 7.86999 12.7382 6.26374C12.7362 4.60996 12.0783 3.02448 10.9089 1.85514C9.73942 0.685792 8.15388 0.0280645 6.50009 0.0262451ZM6.50009 8.74999C6.00564 8.74999 5.52229 8.60337 5.11116 8.32867C4.70004 8.05396 4.37961 7.66352 4.19039 7.2067C4.00117 6.74989 3.95166 6.24722 4.04813 5.76227C4.14459 5.27732 4.38269 4.83186 4.73232 4.48223C5.08195 4.1326 5.52741 3.89449 6.01236 3.79803C6.49732 3.70157 6.99998 3.75108 7.4568 3.9403C7.91361 4.12951 8.30406 4.44995 8.57876 4.86107C8.85347 5.27219 9.00009 5.75554 9.00009 6.24999C9.00009 6.91304 8.7367 7.54892 8.26786 8.01776C7.79902 8.4866 7.16313 8.74999 6.50009 8.74999Z" fill="#339966"/>
</svg>
