<svg width="30" height="30" viewBox="0 0 30 30" fill="none" xmlns="http://www.w3.org/2000/svg">
<g clip-path="url(#clip0_186_2165)">
<path d="M26.3377 3.58473H3.66853C1.64494 3.58473 0 5.22967 0 7.25326V22.7467C0 24.7703 1.64494 26.4153 3.66853 26.4153H26.3315C28.3551 26.4153 30 24.7703 30 22.7467V7.25947C30.0062 5.23588 28.3613 3.58473 26.3377 3.58473ZM28.3302 22.7467C28.3302 23.8454 27.4364 24.7393 26.3377 24.7393H3.66853C2.56983 24.7393 1.67598 23.8454 1.67598 22.7467V7.25947C1.67598 6.16077 2.56983 5.26692 3.66853 5.26692H26.3315C27.4302 5.26692 28.324 6.16077 28.324 7.25947V22.7467H28.3302Z" fill="white"/>
<path d="M18.9201 14.8076L26.2572 8.2278C26.5986 7.91744 26.6296 7.38981 26.3193 7.0422C26.0089 6.7008 25.4813 6.66976 25.1337 6.98013L15.0157 16.0614L13.0418 14.2986C13.0356 14.2924 13.0294 14.2862 13.0294 14.2799C12.9859 14.2365 12.9425 14.1992 12.8928 14.162L4.86054 6.97392C4.51293 6.66356 3.98531 6.69459 3.67494 7.0422C3.36458 7.38981 3.39561 7.91744 3.74322 8.2278L11.1672 14.8634L3.77426 21.7846C3.43906 22.1012 3.42044 22.6288 3.73702 22.9702C3.90461 23.144 4.12808 23.2371 4.35154 23.2371C4.55638 23.2371 4.76122 23.1626 4.92261 23.0137L12.4273 15.9932L14.4633 17.8119C14.6247 17.9547 14.8233 18.023 15.0219 18.023C15.2206 18.023 15.4254 17.9485 15.5806 17.8057L17.6725 15.9311L25.1337 23.0199C25.2951 23.175 25.5061 23.2495 25.7109 23.2495C25.9344 23.2495 26.1517 23.1626 26.3193 22.9888C26.6358 22.6536 26.6234 22.1198 26.2882 21.8032L18.9201 14.8076Z" fill="white"/>
</g>
<defs>
<clipPath id="clip0_186_2165">
<rect width="30" height="30" fill="white"/>
</clipPath>
</defs>
</svg>
