<svg width="15" height="15" viewBox="0 0 15 15" fill="none" xmlns="http://www.w3.org/2000/svg">
<g clip-path="url(#clip0_110_350)">
<path d="M14.9712 3.46375L9.71 8.72499C9.12335 9.31015 8.32859 9.63876 7.5 9.63876C6.67141 9.63876 5.87664 9.31015 5.29 8.72499L0.02875 3.46375C0.02 3.56249 0 3.65187 0 3.74999V11.25C0.000992411 12.0785 0.330551 12.8728 0.916387 13.4586C1.50222 14.0444 2.2965 14.374 3.125 14.375H11.875C12.7035 14.374 13.4978 14.0444 14.0836 13.4586C14.6694 12.8728 14.999 12.0785 15 11.25V3.74999C15 3.65187 14.98 3.56249 14.9712 3.46375Z" fill="#339966"/>
<path d="M8.82635 7.84126L14.5351 2.13188C14.2586 1.67333 13.8685 1.29377 13.4026 1.02983C12.9367 0.76589 12.4106 0.626463 11.8751 0.625H3.12509C2.5896 0.626463 2.06353 0.76589 1.59761 1.02983C1.13168 1.29377 0.741637 1.67333 0.465088 2.13188L6.17384 7.84126C6.52608 8.19208 7.00296 8.38906 7.50009 8.38906C7.99723 8.38906 8.47411 8.19208 8.82635 7.84126Z" fill="#339966"/>
</g>
<defs>
<clipPath id="clip0_110_350">
<rect width="15" height="15" fill="white"/>
</clipPath>
</defs>
</svg>
