<svg width="30" height="30" viewBox="0 0 30 30" fill="none" xmlns="http://www.w3.org/2000/svg">
<g clip-path="url(#clip0_110_51)">
<path d="M26.3377 3.58473H3.66853C1.64494 3.58473 0 5.22967 0 7.25326V22.7467C0 24.7703 1.64494 26.4153 3.66853 26.4153H26.3315C28.3551 26.4153 30 24.7703 30 22.7467V7.25947C30.0062 5.23588 28.3613 3.58473 26.3377 3.58473ZM28.3302 22.7467C28.3302 23.8454 27.4364 24.7393 26.3377 24.7393H3.66853C2.56983 24.7393 1.67598 23.8454 1.67598 22.7467V7.25947C1.67598 6.16077 2.56983 5.26692 3.66853 5.26692H26.3315C27.4302 5.26692 28.324 6.16077 28.324 7.25947V22.7467H28.3302Z" fill="#339966"/>
<path d="M18.9199 14.8076L26.2569 8.22781C26.5983 7.91744 26.6294 7.38982 26.319 7.04221C26.0086 6.70081 25.481 6.66977 25.1334 6.98014L15.0155 16.0615L13.0416 14.2986C13.0353 14.2924 13.0291 14.2862 13.0291 14.28C12.9857 14.2365 12.9422 14.1993 12.8926 14.162L4.8603 6.97393C4.51269 6.66356 3.98506 6.6946 3.6747 7.04221C3.36433 7.38982 3.39537 7.91744 3.74298 8.22781L11.1669 14.8634L3.77402 21.7846C3.43882 22.1012 3.4202 22.6288 3.73677 22.9702C3.90437 23.144 4.12783 23.2371 4.3513 23.2371C4.55614 23.2371 4.76098 23.1626 4.92237 23.0137L12.427 15.9932L14.463 17.8119C14.6244 17.9547 14.8231 18.023 15.0217 18.023C15.2203 18.023 15.4252 17.9485 15.5803 17.8057L17.6722 15.9311L25.1334 23.0199C25.2948 23.175 25.5059 23.2495 25.7107 23.2495C25.9342 23.2495 26.1514 23.1626 26.319 22.9888C26.6356 22.6536 26.6232 22.1198 26.288 21.8032L18.9199 14.8076Z" fill="#339966"/>
</g>
<defs>
<clipPath id="clip0_110_51">
<rect width="30" height="30" fill="white"/>
</clipPath>
</defs>
</svg>
