<svg width="20" height="20" viewBox="0 0 20 20" fill="none" xmlns="http://www.w3.org/2000/svg">
<g clip-path="url(#clip0_165_597)">
<path d="M18.5635 16.576C18.1591 15.8108 17.3644 15.3324 16.499 15.333C15.3265 15.335 14.3372 16.2061 14.1867 17.3689C13.8758 16.9292 13.371 16.6672 12.8324 16.6663H11.8324V8.61647C11.8289 6.50818 10.4914 4.63306 8.49919 3.94324V3.33326H10.4991C10.6832 3.33326 10.8325 3.18401 10.8325 2.99993V0.950645C10.8319 0.425865 10.4066 0.000541654 9.88182 0H3.11531C2.59103 0.00129164 2.16654 0.426365 2.16599 0.950645V2.99993C2.16599 3.18401 2.31524 3.33326 2.49932 3.33326H4.49928V3.94324C2.50703 4.63306 1.16956 6.50818 1.16602 8.61647V19.6662C1.16602 19.8503 1.31526 19.9995 1.49934 19.9995H12.8324C13.5873 19.9965 14.2459 19.4866 14.4377 18.7566C15.0399 19.8959 16.4516 20.3313 17.5909 19.7291C18.7302 19.127 19.1656 17.7153 18.5635 16.576ZM2.83265 2.66661V0.950645C2.83281 0.793857 2.95985 0.666818 3.11664 0.666651H9.88316C10.0394 0.667568 10.1657 0.794398 10.1658 0.950645V2.66661H2.83265ZM7.83254 3.33326V3.76025C7.51963 3.69854 7.20151 3.66717 6.88256 3.66658H6.11591C5.79696 3.66717 5.47884 3.69854 5.16593 3.76025V3.33326H7.83254ZM1.83267 19.3329V18.3329H8.49919C8.5004 18.6947 8.6206 19.0461 8.84118 19.3329H1.83267ZM11.1658 19.3329H10.1658C9.61354 19.3329 9.16584 18.8852 9.16584 18.3329C9.16584 17.7806 9.61354 17.3329 10.1658 17.3329H11.1658V19.3329ZM11.1658 16.6663H10.1658C9.50391 16.6672 8.90526 17.0596 8.64052 17.6663H1.83267V10.6664H11.1658V16.6663ZM11.1658 9.99977H1.83267V8.61647C1.83542 6.25207 3.7515 4.33598 6.11591 4.33323H6.88256C9.24696 4.33598 11.163 6.25207 11.1658 8.61647V9.99977ZM12.8324 19.3329H11.8324V17.3329H12.8324C13.3847 17.3329 13.8324 17.7806 13.8324 18.3329C13.8324 18.8852 13.3847 19.3329 12.8324 19.3329ZM16.1657 19.2996C15.3902 19.1401 14.8334 18.458 14.8324 17.6663C14.8334 16.8746 15.3902 16.1924 16.1657 16.033V19.2996ZM18.134 17.9979C18.0008 18.6538 17.4882 19.1664 16.8323 19.2996V16.033C17.7344 16.2161 18.3171 17.0959 18.134 17.9979Z" fill="black"/>
<path d="M3.16602 9.33312H3.83267C3.83413 8.04511 4.87793 7.0013 6.16595 6.99984V6.33319C4.50998 6.33519 3.16802 7.67716 3.16602 9.33312Z" fill="black"/>
<path d="M4.16567 1H3.49902V2.3333H4.16567V1Z" fill="black"/>
<path d="M5.49917 1H4.83252V2.3333H5.49917V1Z" fill="black"/>
<path d="M6.83218 1H6.16553V2.3333H6.83218V1Z" fill="black"/>
<path d="M8.16568 1H7.49902V2.3333H8.16568V1Z" fill="black"/>
<path d="M9.49917 1H8.83252V2.3333H9.49917V1Z" fill="black"/>
<path d="M7.16563 13.3331V11.9998H5.83233V13.3331H4.49902V14.6664H5.83233V15.9997H7.16563V14.6664H8.49893V13.3331H7.16563Z" fill="black"/>
</g>
<defs>
<clipPath id="clip0_165_597">
<rect width="20" height="20" fill="white"/>
</clipPath>
</defs>
</svg>
