<svg width="15" height="15" viewBox="0 0 15 15" fill="none" xmlns="http://www.w3.org/2000/svg">
<g clip-path="url(#clip0_110_353)">
<path d="M14.3191 6.875C14.154 6.875 13.9956 6.80915 13.8789 6.69194C13.7621 6.57473 13.6965 6.41576 13.6965 6.25C13.6952 4.92432 13.17 3.65332 12.2363 2.71593C11.3026 1.77853 10.0365 1.25132 8.71598 1.25C8.55087 1.25 8.39251 1.18415 8.27576 1.06694C8.159 0.949732 8.09341 0.790761 8.09341 0.625001C8.09341 0.459241 8.159 0.300269 8.27576 0.183059C8.39251 0.0658492 8.55087 1.1574e-06 8.71598 1.1574e-06C10.3666 0.0018209 11.9491 0.660885 13.1162 1.83259C14.2833 3.0043 14.9398 4.59295 14.9417 6.25C14.9417 6.41576 14.8761 6.57473 14.7593 6.69194C14.6426 6.80915 14.4842 6.875 14.3191 6.875ZM12.4514 6.25C12.4514 5.25544 12.0578 4.30161 11.3573 3.59835C10.6568 2.89509 9.70667 2.5 8.71598 2.5C8.55087 2.5 8.39251 2.56585 8.27576 2.68306C8.159 2.80027 8.09341 2.95924 8.09341 3.125C8.09341 3.29076 8.159 3.44973 8.27576 3.56694C8.39251 3.68415 8.55087 3.75 8.71598 3.75C9.37644 3.75 10.0099 4.01339 10.4769 4.48223C10.9439 4.95107 11.2063 5.58696 11.2063 6.25C11.2063 6.41576 11.2718 6.57473 11.3886 6.69194C11.5054 6.80915 11.6637 6.875 11.8288 6.875C11.9939 6.875 12.1523 6.80915 12.269 6.69194C12.3858 6.57473 12.4514 6.41576 12.4514 6.25ZM13.8105 13.8525L14.377 13.1969C14.7376 12.8337 14.9401 12.3418 14.9401 11.8291C14.9401 11.3163 14.7376 10.8244 14.377 10.4612C14.3577 10.4419 12.8598 9.285 12.8598 9.285C12.5003 8.94145 12.0228 8.75016 11.5264 8.75086C11.0301 8.75155 10.5531 8.94419 10.1946 9.28874L9.00796 10.2925C8.03936 9.89005 7.15949 9.29948 6.41888 8.55469C5.67827 7.80991 5.09152 6.92558 4.69232 5.9525L5.68843 4.765C6.03191 4.40511 6.22402 3.92617 6.22484 3.42775C6.22565 2.92933 6.0351 2.44977 5.69279 2.08875C5.69279 2.08875 4.53917 0.586876 4.51987 0.567501C4.16467 0.208594 3.68306 0.00438991 3.17912 -0.000989602C2.67518 -0.00636912 2.18937 0.187508 1.82664 0.538751L1.11069 1.16375C-3.11904 6.09 5.98913 15.1631 11.0581 15C11.5699 15.003 12.0772 14.903 12.5499 14.7059C13.0227 14.5088 13.4513 14.2186 13.8105 13.8525Z" fill="#339966"/>
</g>
<defs>
<clipPath id="clip0_110_353">
<rect width="14.9416" height="15" fill="white"/>
</clipPath>
</defs>
</svg>
