<svg width="30" height="30" viewBox="0 0 30 30" fill="none" xmlns="http://www.w3.org/2000/svg">
<g clip-path="url(#clip0_110_56)">
<path d="M23.7094 18.5839C23.0952 17.9444 22.3544 17.6025 21.5693 17.6025C20.7905 17.6025 20.0433 17.9381 19.4038 18.5776L17.403 20.5721C17.2384 20.4834 17.0737 20.4011 16.9154 20.3188C16.6875 20.2048 16.4722 20.0972 16.2886 19.9832C14.4144 18.7929 12.7112 17.2416 11.0776 15.2345C10.2862 14.234 9.75429 13.3919 9.36805 12.5372C9.88725 12.0623 10.3685 11.5684 10.837 11.0935C11.0143 10.9162 11.1916 10.7326 11.3689 10.5553C12.6985 9.22567 12.6985 7.50345 11.3689 6.17379L9.64032 4.44524C9.44403 4.24895 9.24142 4.04634 9.05147 3.84372C8.67157 3.45116 8.27267 3.04593 7.86111 2.66603C7.24693 2.05818 6.51245 1.73527 5.73999 1.73527C4.96752 1.73527 4.22038 2.05818 3.58721 2.66603C3.58087 2.67236 3.58087 2.67236 3.57454 2.67869L1.42176 4.85047C0.611304 5.66092 0.14909 6.64867 0.0477825 7.79471C-0.104178 9.64357 0.440348 11.3658 0.858241 12.4928C1.88398 15.2598 3.41625 17.8241 5.702 20.5721C8.47528 23.8836 11.8121 26.4986 15.6238 28.3411C17.0801 29.0312 19.0239 29.848 21.1957 29.9873C21.3286 29.9937 21.4679 30 21.5946 30C23.0572 30 24.2856 29.4745 25.248 28.4297C25.2543 28.4171 25.267 28.4107 25.2733 28.3981C25.6025 27.9992 25.9825 27.6383 26.3813 27.252C26.6536 26.9924 26.9322 26.7202 27.2045 26.4352C27.8313 25.7831 28.1606 25.0233 28.1606 24.2445C28.1606 23.4593 27.825 22.7059 27.1855 22.0727L23.7094 18.5839ZM25.9761 25.2512C25.9698 25.2512 25.9698 25.2575 25.9761 25.2512C25.7292 25.5171 25.4759 25.7577 25.2037 26.0237C24.7921 26.4162 24.3742 26.8278 23.9816 27.29C23.3421 27.9738 22.5887 28.2968 21.6009 28.2968C21.5059 28.2968 21.4046 28.2968 21.3097 28.2904C19.4291 28.1701 17.6816 27.4356 16.3709 26.8088C12.7872 25.0739 9.64032 22.6109 7.02532 19.4894C4.86621 16.887 3.42258 14.481 2.46649 11.8977C1.87765 10.3211 1.66237 9.09271 1.75734 7.93401C1.82066 7.1932 2.10559 6.57902 2.63112 6.05349L4.79023 3.89438C5.10048 3.60312 5.42973 3.44483 5.75265 3.44483C6.15155 3.44483 6.47446 3.68543 6.67708 3.88805C6.68341 3.89438 6.68974 3.90071 6.69607 3.90704C7.08231 4.26795 7.44955 4.64152 7.83578 5.04042C8.03206 5.24303 8.23468 5.44565 8.43729 5.65459L10.1658 7.38315C10.837 8.05431 10.837 8.67481 10.1658 9.34597C9.98223 9.52959 9.80494 9.71321 9.62132 9.8905C9.08946 10.435 8.58292 10.9416 8.03206 11.4354C8.0194 11.4481 8.00674 11.4544 8.00041 11.4671C7.45588 12.0116 7.55719 12.5435 7.67116 12.9044C7.67749 12.9234 7.68382 12.9424 7.69015 12.9614C8.1397 14.0504 8.77287 15.0762 9.73529 16.2982L9.74162 16.3045C11.4892 18.4573 13.3317 20.1352 15.3642 21.4205C15.6238 21.5852 15.8897 21.7181 16.143 21.8448C16.3709 21.9587 16.5862 22.0664 16.7698 22.1803C16.7951 22.193 16.8205 22.212 16.8458 22.2247C17.0611 22.3323 17.2637 22.383 17.4726 22.383C17.9982 22.383 18.3274 22.0537 18.4351 21.9461L20.6005 19.7806C20.8158 19.5653 21.1577 19.3057 21.5566 19.3057C21.9492 19.3057 22.2721 19.5527 22.4684 19.768C22.4747 19.7743 22.4747 19.7743 22.481 19.7806L25.9698 23.2694C26.622 23.9152 26.622 24.5801 25.9761 25.2512Z" fill="#339966"/>
<path d="M16.2126 7.13622C17.8715 7.41482 19.3785 8.19995 20.5815 9.40297C21.7845 10.606 22.5633 12.1129 22.8482 13.7718C22.9179 14.1897 23.2788 14.481 23.6903 14.481C23.741 14.481 23.7853 14.4747 23.836 14.4683C24.3045 14.3924 24.6148 13.9491 24.5388 13.4806C24.1969 11.4734 23.2471 9.64358 21.7972 8.19362C20.3472 6.74366 18.5174 5.7939 16.5102 5.45199C16.0417 5.37601 15.6048 5.68626 15.5225 6.14848C15.4402 6.61069 15.7441 7.06024 16.2126 7.13622Z" fill="#339966"/>
<path d="M29.9652 13.2337C29.4016 9.9285 27.844 6.92094 25.4507 4.52755C23.0573 2.13417 20.0497 0.576569 16.7446 0.0130468C16.2823 -0.0692653 15.8455 0.24732 15.7631 0.709535C15.6872 1.17808 15.9974 1.61497 16.466 1.69728C19.4165 2.19749 22.1075 3.59679 24.2476 5.73058C26.3877 7.8707 27.7807 10.5617 28.2809 13.5122C28.3506 13.9301 28.7115 14.2214 29.123 14.2214C29.1737 14.2214 29.218 14.2151 29.2687 14.2087C29.7309 14.1391 30.0475 13.6959 29.9652 13.2337Z" fill="#339966"/>
</g>
<defs>
<clipPath id="clip0_110_56">
<rect width="30" height="30" fill="white"/>
</clipPath>
</defs>
</svg>
