<svg width="20" height="20" viewBox="0 0 20 20" fill="none" xmlns="http://www.w3.org/2000/svg">
<g clip-path="url(#clip0_165_645)">
<path d="M12.7494 16.5151L7.95167 15.1001C7.81712 15.0604 7.67216 15.1092 7.58909 15.2222C7.33835 15.5615 7.16193 15.9499 7.07137 16.3619C5.76252 15.761 4.67237 14.7687 3.95134 13.5219C4.32561 13.3967 4.67158 13.1991 4.96948 12.9402C5.06749 12.8545 5.10653 12.7195 5.06937 12.5946L3.6953 7.94806C3.65822 7.823 3.55147 7.7311 3.42229 7.713C3.28457 7.69277 3.14561 7.68233 3.00644 7.6817H2.94252C1.41892 7.71346 0.161801 8.88376 0.0212569 10.4012C0.0202581 10.4158 0.0202581 10.4305 0.0212569 10.4451C0.0345331 10.7808 0.0655386 11.1156 0.114149 11.448C0.793106 16.309 4.92424 19.9431 9.83214 19.9967C9.86344 19.999 9.93203 20 10.0013 20C10.0705 20 10.1315 20 10.1598 19.997C11.7494 19.9102 12.9942 18.5962 12.9948 17.0042C12.9948 16.9409 12.9911 16.8773 12.9881 16.8344C12.9881 16.6868 12.891 16.5568 12.7494 16.5151ZM10.1188 19.3325H10.1191C10.0769 19.3348 9.91938 19.3348 9.86011 19.3325C5.27305 19.289 1.40835 15.8954 0.772381 11.3524C0.728016 11.0502 0.699341 10.746 0.686481 10.4408C0.805758 9.27247 1.77575 8.37539 2.94984 8.34759H3.00644C3.04394 8.34759 3.08189 8.34859 3.12031 8.35059L4.36785 12.5683C4.08002 12.776 3.74891 12.9158 3.39932 12.9772C3.21828 13.0094 3.09767 13.1823 3.12988 13.3633C3.13554 13.3951 3.14578 13.4258 3.16026 13.4546C4.0089 15.1473 5.45675 16.4637 7.22219 17.148C7.3937 17.2143 7.58647 17.1291 7.65281 16.9576C7.6653 16.9253 7.67266 16.8912 7.67466 16.8567C7.69651 16.486 7.80805 16.1263 7.99962 15.8082L12.3279 17.0851C12.2845 18.2932 11.326 19.2682 10.1188 19.3325Z" fill="black"/>
<path d="M18.1865 6.01697C18.9924 4.41451 18.6672 2.47464 17.3828 1.22256C15.8084 -0.321926 13.3172 -0.414235 11.6328 1.00948C9.94855 -0.41332 7.45825 -0.321011 5.88388 1.22256C4.59925 2.47444 4.27367 4.41426 5.07915 6.01697H3.33252V6.68286H5.49666C5.61519 6.83955 5.74437 6.98796 5.88321 7.12701L11.3994 12.557C11.5289 12.6839 11.7361 12.6839 11.8656 12.557L17.3828 7.12701C17.5215 6.98809 17.6503 6.83968 17.7683 6.68286H19.9798V6.01697H18.1865ZM11.6328 11.8525L6.38163 6.68286H8.32669C8.45288 6.6829 8.56829 6.61161 8.62468 6.49874L10.1076 3.53287L10.659 9.04677C10.6739 9.19414 10.7843 9.31396 10.93 9.34076C10.9498 9.34459 10.97 9.3465 10.9903 9.34642C11.1171 9.34713 11.2332 9.27571 11.2899 9.1623L12.5278 6.68286H13.3209C13.4417 6.68286 13.5531 6.61735 13.6119 6.51173L14.8507 4.281L15.3262 6.4215C15.3598 6.5742 15.4951 6.6829 15.6515 6.68286H16.8834L11.6328 11.8525ZM17.4231 6.01697H15.9178L15.3102 3.28116C15.2705 3.10162 15.0928 2.98825 14.9133 3.02796C14.8201 3.04856 14.7402 3.10816 14.6939 3.1916L13.1248 6.01697H12.322C12.1952 6.01626 12.0791 6.08768 12.0224 6.20109L11.2053 7.83518L10.6556 2.32128C10.6374 2.13833 10.4743 2.00478 10.2913 2.02301C10.1775 2.03437 10.0774 2.10337 10.0264 2.20575L8.12093 6.01697H5.84259C5.49221 5.46536 5.30638 4.82528 5.30688 4.17179C5.30634 3.23975 5.68282 2.34713 6.35067 1.69701C7.75299 0.322614 9.99712 0.322614 11.3994 1.69701C11.5289 1.8239 11.7361 1.8239 11.8656 1.69701C13.2679 0.322405 15.5123 0.322405 16.9147 1.69701C18.0846 2.83552 18.2967 4.638 17.4231 6.01697Z" fill="black"/>
</g>
<defs>
<clipPath id="clip0_165_645">
<rect width="20" height="20" fill="white"/>
</clipPath>
</defs>
</svg>
