<svg width="30" height="30" viewBox="0 0 30 30" fill="none" xmlns="http://www.w3.org/2000/svg">
<path d="M15 0C6.7292 0 0 6.72885 0 15C0 23.2712 6.7292 30 15 30C23.2712 30 30 23.2712 30 15C30 6.72885 23.2708 0 15 0ZM15 27.8102C7.93652 27.8102 2.18977 22.0635 2.18977 15C2.18977 7.93652 7.93652 2.18977 15 2.18977C22.0635 2.18977 27.8102 7.93647 27.8102 14.9996C27.8102 22.0635 22.0635 27.8102 15 27.8102Z" fill="#339966"/>
<path d="M20.1096 15H15.3651V8.43065C15.3651 7.8259 14.8749 7.33576 14.2702 7.33576C13.6654 7.33576 13.1753 7.8259 13.1753 8.43065V16.0949C13.1753 16.6996 13.6654 17.1898 14.2702 17.1898H20.1096C20.7143 17.1898 21.2045 16.6996 21.2045 16.0949C21.2045 15.4901 20.7143 15 20.1096 15Z" fill="#339966"/>
</svg>
