<svg width="20" height="20" viewBox="0 0 20 20" fill="none" xmlns="http://www.w3.org/2000/svg">
<path d="M19.9758 11.149C19.828 10.1251 19.0236 9.32077 17.9997 9.17298V8.56699C17.9997 6.89502 16.7287 5.53371 15.1664 5.53371C13.6491 5.53371 12.3788 6.85369 12.3331 8.47633H12.3525L12.3331 8.47966V15.0486C12.3331 17.1485 10.7632 18.8538 8.83319 18.8538C6.90322 18.8538 5.33324 17.1462 5.33324 15.0486V14.4796C5.81657 14.4796 6.33323 14.1292 6.33323 13.1463V12.3079C8.47253 11.7609 9.99983 9.92397 9.99983 7.84134V7.14635H9.33318L9.31918 2.80808C9.31435 2.00505 8.7381 1.31939 7.94787 1.17644C7.77741 0.654237 7.21588 0.369075 6.69364 0.539573C6.17144 0.710028 5.88628 1.27156 6.05677 1.7938C6.22723 2.316 6.78876 2.60117 7.311 2.43067C7.59062 2.33938 7.8155 2.12901 7.9252 1.85609C8.35224 1.97759 8.64806 2.36609 8.65152 2.81008L8.66652 7.14635H7.99987V7.851C7.97328 9.01044 7.19596 10.018 6.08123 10.338C5.48478 10.5272 4.84438 10.5272 4.24793 10.338C3.13449 10.0169 2.35892 9.00953 2.33329 7.851V7.14635H1.33331V2.81308C1.33523 2.36255 1.63822 1.96888 2.0733 1.85176C2.27617 2.36821 2.85929 2.62237 3.37574 2.4195C3.89219 2.21663 4.14635 1.63347 3.94348 1.11706C3.7406 0.600655 3.15745 0.34645 2.64104 0.549322C2.36121 0.659279 2.1453 0.888734 2.05263 1.17477C1.25377 1.31127 0.668864 2.00263 0.666656 2.81308V7.14635H0V7.83967C0 9.92464 1.52831 11.7623 3.66661 12.3079V13.1463C3.66661 14.1292 4.18326 14.4796 4.66659 14.4796V15.0486C4.66659 17.5152 6.53556 19.5205 8.83319 19.5205C11.1308 19.5205 12.9998 17.5129 12.9998 15.0486V8.49566C13.0331 7.23068 14.0058 6.20136 15.1664 6.20136C16.3611 6.20136 17.333 7.26268 17.333 8.56799V9.17298C16.0576 9.35706 15.1729 10.5403 15.357 11.8157C15.5411 13.0911 16.7243 13.9758 17.9997 13.7917C19.2751 13.6077 20.1598 12.4244 19.9758 11.149ZM6.99988 1.81309C6.8158 1.81309 6.66656 1.66385 6.66656 1.47977C6.66656 1.29569 6.8158 1.14644 6.99988 1.14644C7.18396 1.14644 7.33321 1.29569 7.33321 1.47977C7.33321 1.66385 7.18396 1.81309 6.99988 1.81309ZM2.99995 1.14644C3.18403 1.14644 3.33328 1.29569 3.33328 1.47977C3.33328 1.66385 3.18403 1.81309 2.99995 1.81309C2.81587 1.81309 2.66662 1.66385 2.66662 1.47977C2.66662 1.29569 2.81587 1.14644 2.99995 1.14644ZM0.666656 7.83967V7.813H1.66664V7.851C1.69164 9.29977 2.6555 10.5641 4.04593 10.972C4.77455 11.2027 5.55662 11.2027 6.28523 10.972C7.67633 10.5647 8.64106 9.30027 8.66652 7.851V7.813H9.33318V7.83967C9.33318 9.69398 7.90387 11.3256 5.93323 11.7203C5.47049 11.8129 4.9965 11.8362 4.52693 11.7893C4.37234 11.7743 4.21868 11.751 4.0666 11.7196C2.09597 11.3256 0.666656 9.69398 0.666656 7.83967ZM4.66659 13.8129C4.36659 13.8129 4.33326 13.3463 4.33326 13.1463V12.4389C4.35993 12.4423 4.38726 12.4436 4.41426 12.4463C4.44759 12.4499 4.48093 12.4526 4.51426 12.4556C4.67192 12.4696 4.83092 12.4789 4.99125 12.4793H5.00792C5.16791 12.4793 5.32658 12.4696 5.48324 12.4556C5.51658 12.4526 5.55191 12.4499 5.58624 12.4463C5.61257 12.4433 5.63991 12.4423 5.66624 12.4389V13.1463C5.66624 13.3463 5.63291 13.8129 5.33291 13.8129H4.66659ZM17.6664 13.1463C16.7459 13.1463 15.9997 12.4001 15.9997 11.4796C15.9997 10.5592 16.7459 9.81297 17.6664 9.81297C18.5868 9.81297 19.333 10.5592 19.333 11.4796C19.3319 12.3996 18.5864 13.1452 17.6664 13.1463Z" fill="black"/>
<path d="M17.6665 10.4797C17.1142 10.4797 16.6665 10.9274 16.6665 11.4797C16.6665 12.0319 17.1142 12.4796 17.6665 12.4796C18.2188 12.4796 18.6665 12.0319 18.6665 11.4797C18.6665 10.9274 18.2188 10.4797 17.6665 10.4797ZM17.6665 11.813C17.4824 11.813 17.3332 11.6637 17.3332 11.4797C17.3332 11.2956 17.4824 11.1463 17.6665 11.1463C17.8506 11.1463 17.9998 11.2956 17.9998 11.4797C17.9998 11.6637 17.8506 11.813 17.6665 11.813Z" fill="black"/>
</svg>
